%TF.GenerationSoftware,KiCad,Pcbnew,(5.1.9)-1*%
%TF.CreationDate,2021-10-19T20:47:57+02:00*%
%TF.ProjectId,BusyBox,42757379-426f-4782-9e6b-696361645f70,rev?*%
%TF.SameCoordinates,Original*%
%TF.FileFunction,Soldermask,Bot*%
%TF.FilePolarity,Negative*%
%FSLAX46Y46*%
G04 Gerber Fmt 4.6, Leading zero omitted, Abs format (unit mm)*
G04 Created by KiCad (PCBNEW (5.1.9)-1) date 2021-10-19 20:47:57*
%MOMM*%
%LPD*%
G01*
G04 APERTURE LIST*
%ADD10O,1.600000X1.600000*%
%ADD11C,1.600000*%
%ADD12C,1.524000*%
%ADD13R,1.600000X1.600000*%
%ADD14O,1.700000X1.700000*%
%ADD15R,1.700000X1.700000*%
%ADD16C,1.800000*%
%ADD17R,1.800000X1.800000*%
G04 APERTURE END LIST*
D10*
%TO.C,R2*%
X138049000Y-102565200D03*
D11*
X127889000Y-102565200D03*
%TD*%
D12*
%TO.C,U1*%
X123698700Y-70547400D03*
X123698700Y-73087400D03*
X123698700Y-75627400D03*
X123698700Y-78167400D03*
X123698700Y-80707400D03*
X123698700Y-83247400D03*
X123698700Y-85787400D03*
X123698700Y-88327400D03*
X123698700Y-90867400D03*
X123698700Y-93407400D03*
X123698700Y-95947400D03*
X123698700Y-98487400D03*
X123698700Y-101027400D03*
X123698700Y-103567400D03*
X123698700Y-106107400D03*
X95758700Y-106107400D03*
X95758700Y-103567400D03*
X95758700Y-101027400D03*
X95758700Y-98487400D03*
X95758700Y-95947400D03*
X95758700Y-93407400D03*
X95758700Y-90867400D03*
X95758700Y-88327400D03*
X95758700Y-85787400D03*
X95758700Y-83247400D03*
X95758700Y-80707400D03*
X95758700Y-78167400D03*
X95758700Y-75627400D03*
X95758700Y-73087400D03*
X95758700Y-70547400D03*
%TD*%
D10*
%TO.C,SW1*%
X129387600Y-90805000D03*
X134467600Y-98425000D03*
X131927600Y-90805000D03*
X131927600Y-98425000D03*
X134467600Y-90805000D03*
D13*
X129387600Y-98425000D03*
%TD*%
D10*
%TO.C,R5*%
X135407400Y-87655400D03*
D11*
X135407400Y-77495400D03*
%TD*%
D10*
%TO.C,R4*%
X132130800Y-87655400D03*
D11*
X132130800Y-77495400D03*
%TD*%
D10*
%TO.C,R3*%
X128714500Y-87655400D03*
D11*
X128714500Y-77495400D03*
%TD*%
D10*
%TO.C,R1*%
X138049000Y-113182400D03*
D11*
X127889000Y-113182400D03*
%TD*%
D14*
%TO.C,J1*%
X128841500Y-71043800D03*
X128841500Y-68503800D03*
X128841500Y-65963800D03*
D15*
X128841500Y-63423800D03*
%TD*%
D16*
%TO.C,D2*%
X135077200Y-107924600D03*
D17*
X137617200Y-107924600D03*
%TD*%
D16*
%TO.C,D1*%
X128181100Y-107924600D03*
D17*
X130721100Y-107924600D03*
%TD*%
M02*
