%TF.GenerationSoftware,KiCad,Pcbnew,(5.1.9)-1*%
%TF.CreationDate,2021-10-19T20:47:57+02:00*%
%TF.ProjectId,BusyBox,42757379-426f-4782-9e6b-696361645f70,rev?*%
%TF.SameCoordinates,Original*%
%TF.FileFunction,Legend,Top*%
%TF.FilePolarity,Positive*%
%FSLAX46Y46*%
G04 Gerber Fmt 4.6, Leading zero omitted, Abs format (unit mm)*
G04 Created by KiCad (PCBNEW (5.1.9)-1) date 2021-10-19 20:47:57*
%MOMM*%
%LPD*%
G01*
G04 APERTURE LIST*
%ADD10C,0.120000*%
%ADD11C,0.150000*%
G04 APERTURE END LIST*
D10*
%TO.C,R2*%
X137009000Y-102565200D02*
X136239000Y-102565200D01*
X128929000Y-102565200D02*
X129699000Y-102565200D01*
X136239000Y-101195200D02*
X129699000Y-101195200D01*
X136239000Y-103935200D02*
X136239000Y-101195200D01*
X129699000Y-103935200D02*
X136239000Y-103935200D01*
X129699000Y-101195200D02*
X129699000Y-103935200D01*
D11*
%TO.C,U1*%
X124978700Y-117367400D02*
X124978700Y-60367400D01*
X94478700Y-117367400D02*
X124978700Y-117367400D01*
X94478700Y-60367400D02*
X94478700Y-117367400D01*
X94978700Y-60367400D02*
X94478700Y-60367400D01*
X124978700Y-60367400D02*
X94978700Y-60367400D01*
X124224751Y-62927400D02*
G75*
G03*
X124224751Y-62927400I-1796051J0D01*
G01*
X98824751Y-62927400D02*
G75*
G03*
X98824751Y-62927400I-1796051J0D01*
G01*
X98824751Y-114997400D02*
G75*
G03*
X98824751Y-114997400I-1796051J0D01*
G01*
X124224751Y-114997400D02*
G75*
G03*
X124224751Y-114997400I-1796051J0D01*
G01*
D10*
%TO.C,SW1*%
X133832600Y-95291667D02*
X135102600Y-95291667D01*
X135032600Y-96645000D02*
X135032600Y-95291667D01*
X134912600Y-96645000D02*
X134912600Y-95291667D01*
X134792600Y-96645000D02*
X134792600Y-95291667D01*
X134672600Y-96645000D02*
X134672600Y-95291667D01*
X134552600Y-96645000D02*
X134552600Y-95291667D01*
X134432600Y-96645000D02*
X134432600Y-95291667D01*
X134312600Y-96645000D02*
X134312600Y-95291667D01*
X134192600Y-96645000D02*
X134192600Y-95291667D01*
X134072600Y-96645000D02*
X134072600Y-95291667D01*
X133952600Y-96645000D02*
X133952600Y-95291667D01*
X133832600Y-92585000D02*
X133832600Y-96645000D01*
X135102600Y-92585000D02*
X133832600Y-92585000D01*
X135102600Y-96645000D02*
X135102600Y-92585000D01*
X133832600Y-96645000D02*
X135102600Y-96645000D01*
X131292600Y-95291667D02*
X132562600Y-95291667D01*
X132492600Y-96645000D02*
X132492600Y-95291667D01*
X132372600Y-96645000D02*
X132372600Y-95291667D01*
X132252600Y-96645000D02*
X132252600Y-95291667D01*
X132132600Y-96645000D02*
X132132600Y-95291667D01*
X132012600Y-96645000D02*
X132012600Y-95291667D01*
X131892600Y-96645000D02*
X131892600Y-95291667D01*
X131772600Y-96645000D02*
X131772600Y-95291667D01*
X131652600Y-96645000D02*
X131652600Y-95291667D01*
X131532600Y-96645000D02*
X131532600Y-95291667D01*
X131412600Y-96645000D02*
X131412600Y-95291667D01*
X131292600Y-92585000D02*
X131292600Y-96645000D01*
X132562600Y-92585000D02*
X131292600Y-92585000D01*
X132562600Y-96645000D02*
X132562600Y-92585000D01*
X131292600Y-96645000D02*
X132562600Y-96645000D01*
X128752600Y-95291667D02*
X130022600Y-95291667D01*
X129952600Y-96645000D02*
X129952600Y-95291667D01*
X129832600Y-96645000D02*
X129832600Y-95291667D01*
X129712600Y-96645000D02*
X129712600Y-95291667D01*
X129592600Y-96645000D02*
X129592600Y-95291667D01*
X129472600Y-96645000D02*
X129472600Y-95291667D01*
X129352600Y-96645000D02*
X129352600Y-95291667D01*
X129232600Y-96645000D02*
X129232600Y-95291667D01*
X129112600Y-96645000D02*
X129112600Y-95291667D01*
X128992600Y-96645000D02*
X128992600Y-95291667D01*
X128872600Y-96645000D02*
X128872600Y-95291667D01*
X128752600Y-92585000D02*
X128752600Y-96645000D01*
X130022600Y-92585000D02*
X128752600Y-92585000D01*
X130022600Y-96645000D02*
X130022600Y-92585000D01*
X128752600Y-96645000D02*
X130022600Y-96645000D01*
X126727600Y-99805000D02*
X128110600Y-99805000D01*
X126727600Y-99805000D02*
X126727600Y-98421000D01*
X126967600Y-89665000D02*
X136887600Y-89665000D01*
X126967600Y-99565000D02*
X136887600Y-99565000D01*
X136887600Y-99565000D02*
X136887600Y-89665000D01*
X126967600Y-99565000D02*
X126967600Y-89665000D01*
%TO.C,R5*%
X135407400Y-86615400D02*
X135407400Y-85845400D01*
X135407400Y-78535400D02*
X135407400Y-79305400D01*
X136777400Y-85845400D02*
X136777400Y-79305400D01*
X134037400Y-85845400D02*
X136777400Y-85845400D01*
X134037400Y-79305400D02*
X134037400Y-85845400D01*
X136777400Y-79305400D02*
X134037400Y-79305400D01*
%TO.C,R4*%
X132130800Y-86615400D02*
X132130800Y-85845400D01*
X132130800Y-78535400D02*
X132130800Y-79305400D01*
X133500800Y-85845400D02*
X133500800Y-79305400D01*
X130760800Y-85845400D02*
X133500800Y-85845400D01*
X130760800Y-79305400D02*
X130760800Y-85845400D01*
X133500800Y-79305400D02*
X130760800Y-79305400D01*
%TO.C,R3*%
X128714500Y-86615400D02*
X128714500Y-85845400D01*
X128714500Y-78535400D02*
X128714500Y-79305400D01*
X130084500Y-85845400D02*
X130084500Y-79305400D01*
X127344500Y-85845400D02*
X130084500Y-85845400D01*
X127344500Y-79305400D02*
X127344500Y-85845400D01*
X130084500Y-79305400D02*
X127344500Y-79305400D01*
%TO.C,R1*%
X137009000Y-113182400D02*
X136239000Y-113182400D01*
X128929000Y-113182400D02*
X129699000Y-113182400D01*
X136239000Y-111812400D02*
X129699000Y-111812400D01*
X136239000Y-114552400D02*
X136239000Y-111812400D01*
X129699000Y-114552400D02*
X136239000Y-114552400D01*
X129699000Y-111812400D02*
X129699000Y-114552400D01*
%TO.C,J1*%
X127511500Y-62093800D02*
X128841500Y-62093800D01*
X127511500Y-63423800D02*
X127511500Y-62093800D01*
X127511500Y-64693800D02*
X130171500Y-64693800D01*
X130171500Y-64693800D02*
X130171500Y-72373800D01*
X127511500Y-64693800D02*
X127511500Y-72373800D01*
X127511500Y-72373800D02*
X130171500Y-72373800D01*
%TO.C,D2*%
X138907200Y-109469600D02*
X138907200Y-106379600D01*
X138847200Y-107924600D02*
G75*
G03*
X138847200Y-107924600I-2500000J0D01*
G01*
X133357200Y-107925062D02*
G75*
G02*
X138907200Y-106379770I2990000J462D01*
G01*
X133357200Y-107924138D02*
G75*
G03*
X138907200Y-109469430I2990000J-462D01*
G01*
%TO.C,D1*%
X132011100Y-109469600D02*
X132011100Y-106379600D01*
X131951100Y-107924600D02*
G75*
G03*
X131951100Y-107924600I-2500000J0D01*
G01*
X126461100Y-107925062D02*
G75*
G02*
X132011100Y-106379770I2990000J462D01*
G01*
X126461100Y-107924138D02*
G75*
G03*
X132011100Y-109469430I2990000J-462D01*
G01*
%TO.C,R2*%
D11*
X132802333Y-100647580D02*
X132469000Y-100171390D01*
X132230904Y-100647580D02*
X132230904Y-99647580D01*
X132611857Y-99647580D01*
X132707095Y-99695200D01*
X132754714Y-99742819D01*
X132802333Y-99838057D01*
X132802333Y-99980914D01*
X132754714Y-100076152D01*
X132707095Y-100123771D01*
X132611857Y-100171390D01*
X132230904Y-100171390D01*
X133183285Y-99742819D02*
X133230904Y-99695200D01*
X133326142Y-99647580D01*
X133564238Y-99647580D01*
X133659476Y-99695200D01*
X133707095Y-99742819D01*
X133754714Y-99838057D01*
X133754714Y-99933295D01*
X133707095Y-100076152D01*
X133135666Y-100647580D01*
X133754714Y-100647580D01*
%TO.C,U1*%
X108966795Y-90319780D02*
X108966795Y-91129304D01*
X109014414Y-91224542D01*
X109062033Y-91272161D01*
X109157271Y-91319780D01*
X109347747Y-91319780D01*
X109442985Y-91272161D01*
X109490604Y-91224542D01*
X109538223Y-91129304D01*
X109538223Y-90319780D01*
X110538223Y-91319780D02*
X109966795Y-91319780D01*
X110252509Y-91319780D02*
X110252509Y-90319780D01*
X110157271Y-90462638D01*
X110062033Y-90557876D01*
X109966795Y-90605495D01*
X120420604Y-70999780D02*
X120420604Y-69999780D01*
X120658700Y-69999780D01*
X120801557Y-70047400D01*
X120896795Y-70142638D01*
X120944414Y-70237876D01*
X120992033Y-70428352D01*
X120992033Y-70571209D01*
X120944414Y-70761685D01*
X120896795Y-70856923D01*
X120801557Y-70952161D01*
X120658700Y-70999780D01*
X120420604Y-70999780D01*
X121611080Y-69999780D02*
X121706319Y-69999780D01*
X121801557Y-70047400D01*
X121849176Y-70095019D01*
X121896795Y-70190257D01*
X121944414Y-70380733D01*
X121944414Y-70618828D01*
X121896795Y-70809304D01*
X121849176Y-70904542D01*
X121801557Y-70952161D01*
X121706319Y-70999780D01*
X121611080Y-70999780D01*
X121515842Y-70952161D01*
X121468223Y-70904542D01*
X121420604Y-70809304D01*
X121372985Y-70618828D01*
X121372985Y-70380733D01*
X121420604Y-70190257D01*
X121468223Y-70095019D01*
X121515842Y-70047400D01*
X121611080Y-69999780D01*
X120420604Y-73539780D02*
X120420604Y-72539780D01*
X120658700Y-72539780D01*
X120801557Y-72587400D01*
X120896795Y-72682638D01*
X120944414Y-72777876D01*
X120992033Y-72968352D01*
X120992033Y-73111209D01*
X120944414Y-73301685D01*
X120896795Y-73396923D01*
X120801557Y-73492161D01*
X120658700Y-73539780D01*
X120420604Y-73539780D01*
X121944414Y-73539780D02*
X121372985Y-73539780D01*
X121658700Y-73539780D02*
X121658700Y-72539780D01*
X121563461Y-72682638D01*
X121468223Y-72777876D01*
X121372985Y-72825495D01*
X120420604Y-76079780D02*
X120420604Y-75079780D01*
X120658700Y-75079780D01*
X120801557Y-75127400D01*
X120896795Y-75222638D01*
X120944414Y-75317876D01*
X120992033Y-75508352D01*
X120992033Y-75651209D01*
X120944414Y-75841685D01*
X120896795Y-75936923D01*
X120801557Y-76032161D01*
X120658700Y-76079780D01*
X120420604Y-76079780D01*
X121372985Y-75175019D02*
X121420604Y-75127400D01*
X121515842Y-75079780D01*
X121753938Y-75079780D01*
X121849176Y-75127400D01*
X121896795Y-75175019D01*
X121944414Y-75270257D01*
X121944414Y-75365495D01*
X121896795Y-75508352D01*
X121325366Y-76079780D01*
X121944414Y-76079780D01*
X120420604Y-78619780D02*
X120420604Y-77619780D01*
X120658700Y-77619780D01*
X120801557Y-77667400D01*
X120896795Y-77762638D01*
X120944414Y-77857876D01*
X120992033Y-78048352D01*
X120992033Y-78191209D01*
X120944414Y-78381685D01*
X120896795Y-78476923D01*
X120801557Y-78572161D01*
X120658700Y-78619780D01*
X120420604Y-78619780D01*
X121325366Y-77619780D02*
X121944414Y-77619780D01*
X121611080Y-78000733D01*
X121753938Y-78000733D01*
X121849176Y-78048352D01*
X121896795Y-78095971D01*
X121944414Y-78191209D01*
X121944414Y-78429304D01*
X121896795Y-78524542D01*
X121849176Y-78572161D01*
X121753938Y-78619780D01*
X121468223Y-78619780D01*
X121372985Y-78572161D01*
X121325366Y-78524542D01*
X120420604Y-81159780D02*
X120420604Y-80159780D01*
X120658700Y-80159780D01*
X120801557Y-80207400D01*
X120896795Y-80302638D01*
X120944414Y-80397876D01*
X120992033Y-80588352D01*
X120992033Y-80731209D01*
X120944414Y-80921685D01*
X120896795Y-81016923D01*
X120801557Y-81112161D01*
X120658700Y-81159780D01*
X120420604Y-81159780D01*
X121849176Y-80493114D02*
X121849176Y-81159780D01*
X121611080Y-80112161D02*
X121372985Y-80826447D01*
X121992033Y-80826447D01*
X120396795Y-82699780D02*
X121015842Y-82699780D01*
X120682509Y-83080733D01*
X120825366Y-83080733D01*
X120920604Y-83128352D01*
X120968223Y-83175971D01*
X121015842Y-83271209D01*
X121015842Y-83509304D01*
X120968223Y-83604542D01*
X120920604Y-83652161D01*
X120825366Y-83699780D01*
X120539652Y-83699780D01*
X120444414Y-83652161D01*
X120396795Y-83604542D01*
X121301557Y-82699780D02*
X121634890Y-83699780D01*
X121968223Y-82699780D01*
X121420604Y-85287400D02*
X121325366Y-85239780D01*
X121182509Y-85239780D01*
X121039652Y-85287400D01*
X120944414Y-85382638D01*
X120896795Y-85477876D01*
X120849176Y-85668352D01*
X120849176Y-85811209D01*
X120896795Y-86001685D01*
X120944414Y-86096923D01*
X121039652Y-86192161D01*
X121182509Y-86239780D01*
X121277747Y-86239780D01*
X121420604Y-86192161D01*
X121468223Y-86144542D01*
X121468223Y-85811209D01*
X121277747Y-85811209D01*
X120420604Y-88779780D02*
X120420604Y-87779780D01*
X120658700Y-87779780D01*
X120801557Y-87827400D01*
X120896795Y-87922638D01*
X120944414Y-88017876D01*
X120992033Y-88208352D01*
X120992033Y-88351209D01*
X120944414Y-88541685D01*
X120896795Y-88636923D01*
X120801557Y-88732161D01*
X120658700Y-88779780D01*
X120420604Y-88779780D01*
X121896795Y-87779780D02*
X121420604Y-87779780D01*
X121372985Y-88255971D01*
X121420604Y-88208352D01*
X121515842Y-88160733D01*
X121753938Y-88160733D01*
X121849176Y-88208352D01*
X121896795Y-88255971D01*
X121944414Y-88351209D01*
X121944414Y-88589304D01*
X121896795Y-88684542D01*
X121849176Y-88732161D01*
X121753938Y-88779780D01*
X121515842Y-88779780D01*
X121420604Y-88732161D01*
X121372985Y-88684542D01*
X120420604Y-91319780D02*
X120420604Y-90319780D01*
X120658700Y-90319780D01*
X120801557Y-90367400D01*
X120896795Y-90462638D01*
X120944414Y-90557876D01*
X120992033Y-90748352D01*
X120992033Y-90891209D01*
X120944414Y-91081685D01*
X120896795Y-91176923D01*
X120801557Y-91272161D01*
X120658700Y-91319780D01*
X120420604Y-91319780D01*
X121849176Y-90319780D02*
X121658700Y-90319780D01*
X121563461Y-90367400D01*
X121515842Y-90415019D01*
X121420604Y-90557876D01*
X121372985Y-90748352D01*
X121372985Y-91129304D01*
X121420604Y-91224542D01*
X121468223Y-91272161D01*
X121563461Y-91319780D01*
X121753938Y-91319780D01*
X121849176Y-91272161D01*
X121896795Y-91224542D01*
X121944414Y-91129304D01*
X121944414Y-90891209D01*
X121896795Y-90795971D01*
X121849176Y-90748352D01*
X121753938Y-90700733D01*
X121563461Y-90700733D01*
X121468223Y-90748352D01*
X121420604Y-90795971D01*
X121372985Y-90891209D01*
X120420604Y-93859780D02*
X120420604Y-92859780D01*
X120658700Y-92859780D01*
X120801557Y-92907400D01*
X120896795Y-93002638D01*
X120944414Y-93097876D01*
X120992033Y-93288352D01*
X120992033Y-93431209D01*
X120944414Y-93621685D01*
X120896795Y-93716923D01*
X120801557Y-93812161D01*
X120658700Y-93859780D01*
X120420604Y-93859780D01*
X121325366Y-92859780D02*
X121992033Y-92859780D01*
X121563461Y-93859780D01*
X120420604Y-96399780D02*
X120420604Y-95399780D01*
X120658700Y-95399780D01*
X120801557Y-95447400D01*
X120896795Y-95542638D01*
X120944414Y-95637876D01*
X120992033Y-95828352D01*
X120992033Y-95971209D01*
X120944414Y-96161685D01*
X120896795Y-96256923D01*
X120801557Y-96352161D01*
X120658700Y-96399780D01*
X120420604Y-96399780D01*
X121563461Y-95828352D02*
X121468223Y-95780733D01*
X121420604Y-95733114D01*
X121372985Y-95637876D01*
X121372985Y-95590257D01*
X121420604Y-95495019D01*
X121468223Y-95447400D01*
X121563461Y-95399780D01*
X121753938Y-95399780D01*
X121849176Y-95447400D01*
X121896795Y-95495019D01*
X121944414Y-95590257D01*
X121944414Y-95637876D01*
X121896795Y-95733114D01*
X121849176Y-95780733D01*
X121753938Y-95828352D01*
X121563461Y-95828352D01*
X121468223Y-95875971D01*
X121420604Y-95923590D01*
X121372985Y-96018828D01*
X121372985Y-96209304D01*
X121420604Y-96304542D01*
X121468223Y-96352161D01*
X121563461Y-96399780D01*
X121753938Y-96399780D01*
X121849176Y-96352161D01*
X121896795Y-96304542D01*
X121944414Y-96209304D01*
X121944414Y-96018828D01*
X121896795Y-95923590D01*
X121849176Y-95875971D01*
X121753938Y-95828352D01*
X120992033Y-98939780D02*
X120658700Y-98463590D01*
X120420604Y-98939780D02*
X120420604Y-97939780D01*
X120801557Y-97939780D01*
X120896795Y-97987400D01*
X120944414Y-98035019D01*
X120992033Y-98130257D01*
X120992033Y-98273114D01*
X120944414Y-98368352D01*
X120896795Y-98415971D01*
X120801557Y-98463590D01*
X120420604Y-98463590D01*
X121325366Y-97939780D02*
X121992033Y-98939780D01*
X121992033Y-97939780D02*
X121325366Y-98939780D01*
X120396795Y-100479780D02*
X120968223Y-100479780D01*
X120682509Y-101479780D02*
X120682509Y-100479780D01*
X121206319Y-100479780D02*
X121872985Y-101479780D01*
X121872985Y-100479780D02*
X121206319Y-101479780D01*
X121420604Y-103067400D02*
X121325366Y-103019780D01*
X121182509Y-103019780D01*
X121039652Y-103067400D01*
X120944414Y-103162638D01*
X120896795Y-103257876D01*
X120849176Y-103448352D01*
X120849176Y-103591209D01*
X120896795Y-103781685D01*
X120944414Y-103876923D01*
X121039652Y-103972161D01*
X121182509Y-104019780D01*
X121277747Y-104019780D01*
X121420604Y-103972161D01*
X121468223Y-103924542D01*
X121468223Y-103591209D01*
X121277747Y-103591209D01*
X120396795Y-105559780D02*
X121015842Y-105559780D01*
X120682509Y-105940733D01*
X120825366Y-105940733D01*
X120920604Y-105988352D01*
X120968223Y-106035971D01*
X121015842Y-106131209D01*
X121015842Y-106369304D01*
X120968223Y-106464542D01*
X120920604Y-106512161D01*
X120825366Y-106559780D01*
X120539652Y-106559780D01*
X120444414Y-106512161D01*
X120396795Y-106464542D01*
X121301557Y-105559780D02*
X121634890Y-106559780D01*
X121968223Y-105559780D01*
X97584414Y-70714066D02*
X98060604Y-70714066D01*
X97489176Y-70999780D02*
X97822509Y-69999780D01*
X98155842Y-70999780D01*
X98679652Y-69999780D02*
X98774890Y-69999780D01*
X98870128Y-70047400D01*
X98917747Y-70095019D01*
X98965366Y-70190257D01*
X99012985Y-70380733D01*
X99012985Y-70618828D01*
X98965366Y-70809304D01*
X98917747Y-70904542D01*
X98870128Y-70952161D01*
X98774890Y-70999780D01*
X98679652Y-70999780D01*
X98584414Y-70952161D01*
X98536795Y-70904542D01*
X98489176Y-70809304D01*
X98441557Y-70618828D01*
X98441557Y-70380733D01*
X98489176Y-70190257D01*
X98536795Y-70095019D01*
X98584414Y-70047400D01*
X98679652Y-69999780D01*
X98560604Y-72587400D02*
X98465366Y-72539780D01*
X98322509Y-72539780D01*
X98179652Y-72587400D01*
X98084414Y-72682638D01*
X98036795Y-72777876D01*
X97989176Y-72968352D01*
X97989176Y-73111209D01*
X98036795Y-73301685D01*
X98084414Y-73396923D01*
X98179652Y-73492161D01*
X98322509Y-73539780D01*
X98417747Y-73539780D01*
X98560604Y-73492161D01*
X98608223Y-73444542D01*
X98608223Y-73111209D01*
X98417747Y-73111209D01*
X97441557Y-75079780D02*
X97774890Y-76079780D01*
X98108223Y-75079780D01*
X98441557Y-75079780D02*
X98441557Y-75889304D01*
X98489176Y-75984542D01*
X98536795Y-76032161D01*
X98632033Y-76079780D01*
X98822509Y-76079780D01*
X98917747Y-76032161D01*
X98965366Y-75984542D01*
X99012985Y-75889304D01*
X99012985Y-75079780D01*
X97536795Y-78572161D02*
X97679652Y-78619780D01*
X97917747Y-78619780D01*
X98012985Y-78572161D01*
X98060604Y-78524542D01*
X98108223Y-78429304D01*
X98108223Y-78334066D01*
X98060604Y-78238828D01*
X98012985Y-78191209D01*
X97917747Y-78143590D01*
X97727271Y-78095971D01*
X97632033Y-78048352D01*
X97584414Y-78000733D01*
X97536795Y-77905495D01*
X97536795Y-77810257D01*
X97584414Y-77715019D01*
X97632033Y-77667400D01*
X97727271Y-77619780D01*
X97965366Y-77619780D01*
X98108223Y-77667400D01*
X98441557Y-77619780D02*
X99060604Y-77619780D01*
X98727271Y-78000733D01*
X98870128Y-78000733D01*
X98965366Y-78048352D01*
X99012985Y-78095971D01*
X99060604Y-78191209D01*
X99060604Y-78429304D01*
X99012985Y-78524542D01*
X98965366Y-78572161D01*
X98870128Y-78619780D01*
X98584414Y-78619780D01*
X98489176Y-78572161D01*
X98441557Y-78524542D01*
X97536795Y-81112161D02*
X97679652Y-81159780D01*
X97917747Y-81159780D01*
X98012985Y-81112161D01*
X98060604Y-81064542D01*
X98108223Y-80969304D01*
X98108223Y-80874066D01*
X98060604Y-80778828D01*
X98012985Y-80731209D01*
X97917747Y-80683590D01*
X97727271Y-80635971D01*
X97632033Y-80588352D01*
X97584414Y-80540733D01*
X97536795Y-80445495D01*
X97536795Y-80350257D01*
X97584414Y-80255019D01*
X97632033Y-80207400D01*
X97727271Y-80159780D01*
X97965366Y-80159780D01*
X98108223Y-80207400D01*
X98489176Y-80255019D02*
X98536795Y-80207400D01*
X98632033Y-80159780D01*
X98870128Y-80159780D01*
X98965366Y-80207400D01*
X99012985Y-80255019D01*
X99060604Y-80350257D01*
X99060604Y-80445495D01*
X99012985Y-80588352D01*
X98441557Y-81159780D01*
X99060604Y-81159780D01*
X97536795Y-83652161D02*
X97679652Y-83699780D01*
X97917747Y-83699780D01*
X98012985Y-83652161D01*
X98060604Y-83604542D01*
X98108223Y-83509304D01*
X98108223Y-83414066D01*
X98060604Y-83318828D01*
X98012985Y-83271209D01*
X97917747Y-83223590D01*
X97727271Y-83175971D01*
X97632033Y-83128352D01*
X97584414Y-83080733D01*
X97536795Y-82985495D01*
X97536795Y-82890257D01*
X97584414Y-82795019D01*
X97632033Y-82747400D01*
X97727271Y-82699780D01*
X97965366Y-82699780D01*
X98108223Y-82747400D01*
X99060604Y-83699780D02*
X98489176Y-83699780D01*
X98774890Y-83699780D02*
X98774890Y-82699780D01*
X98679652Y-82842638D01*
X98584414Y-82937876D01*
X98489176Y-82985495D01*
X97512985Y-86192161D02*
X97655842Y-86239780D01*
X97893938Y-86239780D01*
X97989176Y-86192161D01*
X98036795Y-86144542D01*
X98084414Y-86049304D01*
X98084414Y-85954066D01*
X98036795Y-85858828D01*
X97989176Y-85811209D01*
X97893938Y-85763590D01*
X97703461Y-85715971D01*
X97608223Y-85668352D01*
X97560604Y-85620733D01*
X97512985Y-85525495D01*
X97512985Y-85430257D01*
X97560604Y-85335019D01*
X97608223Y-85287400D01*
X97703461Y-85239780D01*
X97941557Y-85239780D01*
X98084414Y-85287400D01*
X99084414Y-86144542D02*
X99036795Y-86192161D01*
X98893938Y-86239780D01*
X98798700Y-86239780D01*
X98655842Y-86192161D01*
X98560604Y-86096923D01*
X98512985Y-86001685D01*
X98465366Y-85811209D01*
X98465366Y-85668352D01*
X98512985Y-85477876D01*
X98560604Y-85382638D01*
X98655842Y-85287400D01*
X98798700Y-85239780D01*
X98893938Y-85239780D01*
X99036795Y-85287400D01*
X99084414Y-85335019D01*
X97489176Y-88732161D02*
X97632033Y-88779780D01*
X97870128Y-88779780D01*
X97965366Y-88732161D01*
X98012985Y-88684542D01*
X98060604Y-88589304D01*
X98060604Y-88494066D01*
X98012985Y-88398828D01*
X97965366Y-88351209D01*
X97870128Y-88303590D01*
X97679652Y-88255971D01*
X97584414Y-88208352D01*
X97536795Y-88160733D01*
X97489176Y-88065495D01*
X97489176Y-87970257D01*
X97536795Y-87875019D01*
X97584414Y-87827400D01*
X97679652Y-87779780D01*
X97917747Y-87779780D01*
X98060604Y-87827400D01*
X98679652Y-87779780D02*
X98870128Y-87779780D01*
X98965366Y-87827400D01*
X99060604Y-87922638D01*
X99108223Y-88113114D01*
X99108223Y-88446447D01*
X99060604Y-88636923D01*
X98965366Y-88732161D01*
X98870128Y-88779780D01*
X98679652Y-88779780D01*
X98584414Y-88732161D01*
X98489176Y-88636923D01*
X98441557Y-88446447D01*
X98441557Y-88113114D01*
X98489176Y-87922638D01*
X98584414Y-87827400D01*
X98679652Y-87779780D01*
X97512985Y-91272161D02*
X97655842Y-91319780D01*
X97893938Y-91319780D01*
X97989176Y-91272161D01*
X98036795Y-91224542D01*
X98084414Y-91129304D01*
X98084414Y-91034066D01*
X98036795Y-90938828D01*
X97989176Y-90891209D01*
X97893938Y-90843590D01*
X97703461Y-90795971D01*
X97608223Y-90748352D01*
X97560604Y-90700733D01*
X97512985Y-90605495D01*
X97512985Y-90510257D01*
X97560604Y-90415019D01*
X97608223Y-90367400D01*
X97703461Y-90319780D01*
X97941557Y-90319780D01*
X98084414Y-90367400D01*
X98512985Y-91319780D02*
X98512985Y-90319780D01*
X99084414Y-91319780D02*
X98655842Y-90748352D01*
X99084414Y-90319780D02*
X98512985Y-90891209D01*
X98560604Y-92907400D02*
X98465366Y-92859780D01*
X98322509Y-92859780D01*
X98179652Y-92907400D01*
X98084414Y-93002638D01*
X98036795Y-93097876D01*
X97989176Y-93288352D01*
X97989176Y-93431209D01*
X98036795Y-93621685D01*
X98084414Y-93716923D01*
X98179652Y-93812161D01*
X98322509Y-93859780D01*
X98417747Y-93859780D01*
X98560604Y-93812161D01*
X98608223Y-93764542D01*
X98608223Y-93431209D01*
X98417747Y-93431209D01*
X97536795Y-95399780D02*
X98155842Y-95399780D01*
X97822509Y-95780733D01*
X97965366Y-95780733D01*
X98060604Y-95828352D01*
X98108223Y-95875971D01*
X98155842Y-95971209D01*
X98155842Y-96209304D01*
X98108223Y-96304542D01*
X98060604Y-96352161D01*
X97965366Y-96399780D01*
X97679652Y-96399780D01*
X97584414Y-96352161D01*
X97536795Y-96304542D01*
X98441557Y-95399780D02*
X98774890Y-96399780D01*
X99108223Y-95399780D01*
X97560604Y-98415971D02*
X97893938Y-98415971D01*
X98036795Y-98939780D02*
X97560604Y-98939780D01*
X97560604Y-97939780D01*
X98036795Y-97939780D01*
X98465366Y-98939780D02*
X98465366Y-97939780D01*
X99036795Y-98939780D01*
X99036795Y-97939780D01*
X97751080Y-101479780D02*
X97417747Y-101003590D01*
X97179652Y-101479780D02*
X97179652Y-100479780D01*
X97560604Y-100479780D01*
X97655842Y-100527400D01*
X97703461Y-100575019D01*
X97751080Y-100670257D01*
X97751080Y-100813114D01*
X97703461Y-100908352D01*
X97655842Y-100955971D01*
X97560604Y-101003590D01*
X97179652Y-101003590D01*
X98132033Y-101432161D02*
X98274890Y-101479780D01*
X98512985Y-101479780D01*
X98608223Y-101432161D01*
X98655842Y-101384542D01*
X98703461Y-101289304D01*
X98703461Y-101194066D01*
X98655842Y-101098828D01*
X98608223Y-101051209D01*
X98512985Y-101003590D01*
X98322509Y-100955971D01*
X98227271Y-100908352D01*
X98179652Y-100860733D01*
X98132033Y-100765495D01*
X98132033Y-100670257D01*
X98179652Y-100575019D01*
X98227271Y-100527400D01*
X98322509Y-100479780D01*
X98560604Y-100479780D01*
X98703461Y-100527400D01*
X98989176Y-100479780D02*
X99560604Y-100479780D01*
X99274890Y-101479780D02*
X99274890Y-100479780D01*
X98560604Y-103067400D02*
X98465366Y-103019780D01*
X98322509Y-103019780D01*
X98179652Y-103067400D01*
X98084414Y-103162638D01*
X98036795Y-103257876D01*
X97989176Y-103448352D01*
X97989176Y-103591209D01*
X98036795Y-103781685D01*
X98084414Y-103876923D01*
X98179652Y-103972161D01*
X98322509Y-104019780D01*
X98417747Y-104019780D01*
X98560604Y-103972161D01*
X98608223Y-103924542D01*
X98608223Y-103591209D01*
X98417747Y-103591209D01*
X97203461Y-105559780D02*
X97536795Y-106559780D01*
X97870128Y-105559780D01*
X98203461Y-106559780D02*
X98203461Y-105559780D01*
X98679652Y-106559780D02*
X98679652Y-105559780D01*
X99251080Y-106559780D01*
X99251080Y-105559780D01*
%TO.C,SW1*%
X126372361Y-95948333D02*
X126419980Y-95805476D01*
X126419980Y-95567380D01*
X126372361Y-95472142D01*
X126324742Y-95424523D01*
X126229504Y-95376904D01*
X126134266Y-95376904D01*
X126039028Y-95424523D01*
X125991409Y-95472142D01*
X125943790Y-95567380D01*
X125896171Y-95757857D01*
X125848552Y-95853095D01*
X125800933Y-95900714D01*
X125705695Y-95948333D01*
X125610457Y-95948333D01*
X125515219Y-95900714D01*
X125467600Y-95853095D01*
X125419980Y-95757857D01*
X125419980Y-95519761D01*
X125467600Y-95376904D01*
X125419980Y-95043571D02*
X126419980Y-94805476D01*
X125705695Y-94615000D01*
X126419980Y-94424523D01*
X125419980Y-94186428D01*
X126419980Y-93281666D02*
X126419980Y-93853095D01*
X126419980Y-93567380D02*
X125419980Y-93567380D01*
X125562838Y-93662619D01*
X125658076Y-93757857D01*
X125705695Y-93853095D01*
%TO.C,R5*%
X138229780Y-82742066D02*
X137753590Y-83075400D01*
X138229780Y-83313495D02*
X137229780Y-83313495D01*
X137229780Y-82932542D01*
X137277400Y-82837304D01*
X137325019Y-82789685D01*
X137420257Y-82742066D01*
X137563114Y-82742066D01*
X137658352Y-82789685D01*
X137705971Y-82837304D01*
X137753590Y-82932542D01*
X137753590Y-83313495D01*
X137229780Y-81837304D02*
X137229780Y-82313495D01*
X137705971Y-82361114D01*
X137658352Y-82313495D01*
X137610733Y-82218257D01*
X137610733Y-81980161D01*
X137658352Y-81884923D01*
X137705971Y-81837304D01*
X137801209Y-81789685D01*
X138039304Y-81789685D01*
X138134542Y-81837304D01*
X138182161Y-81884923D01*
X138229780Y-81980161D01*
X138229780Y-82218257D01*
X138182161Y-82313495D01*
X138134542Y-82361114D01*
%TO.C,R4*%
X134953180Y-82742066D02*
X134476990Y-83075400D01*
X134953180Y-83313495D02*
X133953180Y-83313495D01*
X133953180Y-82932542D01*
X134000800Y-82837304D01*
X134048419Y-82789685D01*
X134143657Y-82742066D01*
X134286514Y-82742066D01*
X134381752Y-82789685D01*
X134429371Y-82837304D01*
X134476990Y-82932542D01*
X134476990Y-83313495D01*
X134286514Y-81884923D02*
X134953180Y-81884923D01*
X133905561Y-82123019D02*
X134619847Y-82361114D01*
X134619847Y-81742066D01*
%TO.C,R3*%
X131536880Y-82742066D02*
X131060690Y-83075400D01*
X131536880Y-83313495D02*
X130536880Y-83313495D01*
X130536880Y-82932542D01*
X130584500Y-82837304D01*
X130632119Y-82789685D01*
X130727357Y-82742066D01*
X130870214Y-82742066D01*
X130965452Y-82789685D01*
X131013071Y-82837304D01*
X131060690Y-82932542D01*
X131060690Y-83313495D01*
X130536880Y-82408733D02*
X130536880Y-81789685D01*
X130917833Y-82123019D01*
X130917833Y-81980161D01*
X130965452Y-81884923D01*
X131013071Y-81837304D01*
X131108309Y-81789685D01*
X131346404Y-81789685D01*
X131441642Y-81837304D01*
X131489261Y-81884923D01*
X131536880Y-81980161D01*
X131536880Y-82265876D01*
X131489261Y-82361114D01*
X131441642Y-82408733D01*
%TO.C,R1*%
X132802333Y-111264780D02*
X132469000Y-110788590D01*
X132230904Y-111264780D02*
X132230904Y-110264780D01*
X132611857Y-110264780D01*
X132707095Y-110312400D01*
X132754714Y-110360019D01*
X132802333Y-110455257D01*
X132802333Y-110598114D01*
X132754714Y-110693352D01*
X132707095Y-110740971D01*
X132611857Y-110788590D01*
X132230904Y-110788590D01*
X133754714Y-111264780D02*
X133183285Y-111264780D01*
X133469000Y-111264780D02*
X133469000Y-110264780D01*
X133373761Y-110407638D01*
X133278523Y-110502876D01*
X133183285Y-110550495D01*
%TO.C,J1*%
X128508166Y-60546180D02*
X128508166Y-61260466D01*
X128460547Y-61403323D01*
X128365309Y-61498561D01*
X128222452Y-61546180D01*
X128127214Y-61546180D01*
X129508166Y-61546180D02*
X128936738Y-61546180D01*
X129222452Y-61546180D02*
X129222452Y-60546180D01*
X129127214Y-60689038D01*
X129031976Y-60784276D01*
X128936738Y-60831895D01*
%TO.C,D2*%
X135609104Y-112336980D02*
X135609104Y-111336980D01*
X135847200Y-111336980D01*
X135990057Y-111384600D01*
X136085295Y-111479838D01*
X136132914Y-111575076D01*
X136180533Y-111765552D01*
X136180533Y-111908409D01*
X136132914Y-112098885D01*
X136085295Y-112194123D01*
X135990057Y-112289361D01*
X135847200Y-112336980D01*
X135609104Y-112336980D01*
X136561485Y-111432219D02*
X136609104Y-111384600D01*
X136704342Y-111336980D01*
X136942438Y-111336980D01*
X137037676Y-111384600D01*
X137085295Y-111432219D01*
X137132914Y-111527457D01*
X137132914Y-111622695D01*
X137085295Y-111765552D01*
X136513866Y-112336980D01*
X137132914Y-112336980D01*
%TO.C,D1*%
X128713004Y-112336980D02*
X128713004Y-111336980D01*
X128951100Y-111336980D01*
X129093957Y-111384600D01*
X129189195Y-111479838D01*
X129236814Y-111575076D01*
X129284433Y-111765552D01*
X129284433Y-111908409D01*
X129236814Y-112098885D01*
X129189195Y-112194123D01*
X129093957Y-112289361D01*
X128951100Y-112336980D01*
X128713004Y-112336980D01*
X130236814Y-112336980D02*
X129665385Y-112336980D01*
X129951100Y-112336980D02*
X129951100Y-111336980D01*
X129855861Y-111479838D01*
X129760623Y-111575076D01*
X129665385Y-111622695D01*
%TD*%
M02*
