M48
; DRILL file {KiCad (5.1.9)-1} date 10/19/21 20:47:45
; FORMAT={3:3/ absolute / metric / suppress leading zeros}
; #@! TF.CreationDate,2021-10-19T20:47:45+02:00
; #@! TF.GenerationSoftware,Kicad,Pcbnew,(5.1.9)-1
FMAT,2
METRIC,TZ
T1C0.762
T2C0.800
T3C0.900
T4C1.000
%
G90
G05
T1
X95759Y-70547
X95759Y-73087
X95759Y-75627
X95759Y-78167
X95759Y-80707
X95759Y-83247
X95759Y-85787
X95759Y-88327
X95759Y-90867
X95759Y-93407
X95759Y-95947
X95759Y-98487
X95759Y-101027
X95759Y-103567
X95759Y-106107
X123699Y-70547
X123699Y-73087
X123699Y-75627
X123699Y-78167
X123699Y-80707
X123699Y-83247
X123699Y-85787
X123699Y-88327
X123699Y-90867
X123699Y-93407
X123699Y-95947
X123699Y-98487
X123699Y-101027
X123699Y-103567
X123699Y-106107
T2
X127889Y-102565
X127889Y-113182
X128715Y-77495
X128715Y-87655
X129388Y-90805
X129388Y-98425
X131928Y-90805
X131928Y-98425
X132131Y-77495
X132131Y-87655
X134468Y-90805
X134468Y-98425
X135407Y-77495
X135407Y-87655
X138049Y-102565
X138049Y-113182
T3
X128181Y-107925
X130721Y-107925
X135077Y-107925
X137617Y-107925
T4
X128842Y-63424
X128842Y-65964
X128842Y-68504
X128842Y-71044
T0
M30
