%TF.GenerationSoftware,KiCad,Pcbnew,(5.1.9)-1*%
%TF.CreationDate,2021-10-19T20:47:57+02:00*%
%TF.ProjectId,BusyBox,42757379-426f-4782-9e6b-696361645f70,rev?*%
%TF.SameCoordinates,Original*%
%TF.FileFunction,Copper,L1,Top*%
%TF.FilePolarity,Positive*%
%FSLAX46Y46*%
G04 Gerber Fmt 4.6, Leading zero omitted, Abs format (unit mm)*
G04 Created by KiCad (PCBNEW (5.1.9)-1) date 2021-10-19 20:47:57*
%MOMM*%
%LPD*%
G01*
G04 APERTURE LIST*
%TA.AperFunction,ComponentPad*%
%ADD10O,1.600000X1.600000*%
%TD*%
%TA.AperFunction,ComponentPad*%
%ADD11C,1.600000*%
%TD*%
%TA.AperFunction,ComponentPad*%
%ADD12C,1.524000*%
%TD*%
%TA.AperFunction,ComponentPad*%
%ADD13R,1.600000X1.600000*%
%TD*%
%TA.AperFunction,ComponentPad*%
%ADD14O,1.700000X1.700000*%
%TD*%
%TA.AperFunction,ComponentPad*%
%ADD15R,1.700000X1.700000*%
%TD*%
%TA.AperFunction,ComponentPad*%
%ADD16C,1.800000*%
%TD*%
%TA.AperFunction,ComponentPad*%
%ADD17R,1.800000X1.800000*%
%TD*%
%TA.AperFunction,Conductor*%
%ADD18C,0.250000*%
%TD*%
G04 APERTURE END LIST*
D10*
%TO.P,R2,2*%
%TO.N,Net-(D2-Pad1)*%
X138049000Y-102565200D03*
D11*
%TO.P,R2,1*%
%TO.N,GND*%
X127889000Y-102565200D03*
%TD*%
D12*
%TO.P,U1,30*%
%TO.N,Net-(U1-Pad30)*%
X123698700Y-70547400D03*
%TO.P,U1,29*%
%TO.N,SCL*%
X123698700Y-73087400D03*
%TO.P,U1,28*%
%TO.N,SDA*%
X123698700Y-75627400D03*
%TO.P,U1,27*%
%TO.N,Net-(U1-Pad27)*%
X123698700Y-78167400D03*
%TO.P,U1,26*%
%TO.N,SW3*%
X123698700Y-80707400D03*
%TO.P,U1,25*%
%TO.N,Net-(U1-Pad25)*%
X123698700Y-83247400D03*
%TO.P,U1,24*%
%TO.N,Net-(U1-Pad24)*%
X123698700Y-85787400D03*
%TO.P,U1,23*%
%TO.N,LED_Gruen*%
X123698700Y-88327400D03*
%TO.P,U1,22*%
%TO.N,LED_Rot*%
X123698700Y-90867400D03*
%TO.P,U1,21*%
%TO.N,SW2*%
X123698700Y-93407400D03*
%TO.P,U1,20*%
%TO.N,SW1*%
X123698700Y-95947400D03*
%TO.P,U1,19*%
%TO.N,Net-(U1-Pad19)*%
X123698700Y-98487400D03*
%TO.P,U1,18*%
%TO.N,Net-(U1-Pad18)*%
X123698700Y-101027400D03*
%TO.P,U1,17*%
%TO.N,GND*%
X123698700Y-103567400D03*
%TO.P,U1,16*%
%TO.N,3V3*%
X123698700Y-106107400D03*
%TO.P,U1,15*%
%TO.N,5V*%
X95758700Y-106107400D03*
%TO.P,U1,14*%
%TO.N,Net-(U1-Pad14)*%
X95758700Y-103567400D03*
%TO.P,U1,13*%
%TO.N,Net-(U1-Pad13)*%
X95758700Y-101027400D03*
%TO.P,U1,12*%
%TO.N,Net-(U1-Pad12)*%
X95758700Y-98487400D03*
%TO.P,U1,11*%
%TO.N,Net-(U1-Pad11)*%
X95758700Y-95947400D03*
%TO.P,U1,10*%
%TO.N,Net-(U1-Pad10)*%
X95758700Y-93407400D03*
%TO.P,U1,9*%
%TO.N,Net-(U1-Pad9)*%
X95758700Y-90867400D03*
%TO.P,U1,8*%
%TO.N,Net-(U1-Pad8)*%
X95758700Y-88327400D03*
%TO.P,U1,7*%
%TO.N,Net-(U1-Pad7)*%
X95758700Y-85787400D03*
%TO.P,U1,6*%
%TO.N,Net-(U1-Pad6)*%
X95758700Y-83247400D03*
%TO.P,U1,5*%
%TO.N,Net-(U1-Pad5)*%
X95758700Y-80707400D03*
%TO.P,U1,4*%
%TO.N,Net-(U1-Pad4)*%
X95758700Y-78167400D03*
%TO.P,U1,3*%
%TO.N,Net-(U1-Pad3)*%
X95758700Y-75627400D03*
%TO.P,U1,2*%
%TO.N,Net-(U1-Pad2)*%
X95758700Y-73087400D03*
%TO.P,U1,1*%
%TO.N,Net-(U1-Pad1)*%
X95758700Y-70547400D03*
%TD*%
D10*
%TO.P,SW1,6*%
%TO.N,SW1*%
X129387600Y-90805000D03*
%TO.P,SW1,3*%
%TO.N,3V3*%
X134467600Y-98425000D03*
%TO.P,SW1,5*%
%TO.N,SW2*%
X131927600Y-90805000D03*
%TO.P,SW1,2*%
%TO.N,3V3*%
X131927600Y-98425000D03*
%TO.P,SW1,4*%
%TO.N,SW3*%
X134467600Y-90805000D03*
D13*
%TO.P,SW1,1*%
%TO.N,3V3*%
X129387600Y-98425000D03*
%TD*%
D10*
%TO.P,R5,2*%
%TO.N,SW3*%
X135407400Y-87655400D03*
D11*
%TO.P,R5,1*%
%TO.N,GND*%
X135407400Y-77495400D03*
%TD*%
D10*
%TO.P,R4,2*%
%TO.N,SW2*%
X132130800Y-87655400D03*
D11*
%TO.P,R4,1*%
%TO.N,GND*%
X132130800Y-77495400D03*
%TD*%
D10*
%TO.P,R3,2*%
%TO.N,SW1*%
X128714500Y-87655400D03*
D11*
%TO.P,R3,1*%
%TO.N,GND*%
X128714500Y-77495400D03*
%TD*%
D10*
%TO.P,R1,2*%
%TO.N,Net-(D1-Pad1)*%
X138049000Y-113182400D03*
D11*
%TO.P,R1,1*%
%TO.N,GND*%
X127889000Y-113182400D03*
%TD*%
D14*
%TO.P,J1,4*%
%TO.N,SCL*%
X128841500Y-71043800D03*
%TO.P,J1,3*%
%TO.N,SDA*%
X128841500Y-68503800D03*
%TO.P,J1,2*%
%TO.N,5V*%
X128841500Y-65963800D03*
D15*
%TO.P,J1,1*%
%TO.N,GND*%
X128841500Y-63423800D03*
%TD*%
D16*
%TO.P,D2,2*%
%TO.N,LED_Rot*%
X135077200Y-107924600D03*
D17*
%TO.P,D2,1*%
%TO.N,Net-(D2-Pad1)*%
X137617200Y-107924600D03*
%TD*%
D16*
%TO.P,D1,2*%
%TO.N,LED_Gruen*%
X128181100Y-107924600D03*
D17*
%TO.P,D1,1*%
%TO.N,Net-(D1-Pad1)*%
X130721100Y-107924600D03*
%TD*%
D18*
%TO.N,LED_Gruen*%
X122161689Y-89864411D02*
X123698700Y-88327400D01*
X122161689Y-106179151D02*
X122161689Y-89864411D01*
X123907138Y-107924600D02*
X122161689Y-106179151D01*
X128181100Y-107924600D02*
X123907138Y-107924600D01*
%TO.N,Net-(D1-Pad1)*%
X135978900Y-113182400D02*
X130721100Y-107924600D01*
X138049000Y-113182400D02*
X135978900Y-113182400D01*
%TO.N,LED_Rot*%
X135077200Y-107924600D02*
X135166100Y-108013500D01*
%TO.N,Net-(D2-Pad1)*%
X138049000Y-107492800D02*
X137617200Y-107924600D01*
X138049000Y-102565200D02*
X138049000Y-107492800D01*
%TO.N,SCL*%
X126797900Y-73087400D02*
X128841500Y-71043800D01*
X123698700Y-73087400D02*
X126797900Y-73087400D01*
%TO.N,SDA*%
X125996902Y-75627400D02*
X123698700Y-75627400D01*
X130016501Y-71607801D02*
X125996902Y-75627400D01*
X130016501Y-69678801D02*
X130016501Y-71607801D01*
X128841500Y-68503800D02*
X130016501Y-69678801D01*
%TO.N,5V*%
X128841500Y-65963800D02*
X119354600Y-65963800D01*
X108153200Y-93712900D02*
X95758700Y-106107400D01*
X108153200Y-77165200D02*
X108153200Y-93712900D01*
X119354600Y-65963800D02*
X108153200Y-77165200D01*
%TO.N,SW1*%
X129387600Y-88328500D02*
X128714500Y-87655400D01*
X129387600Y-90805000D02*
X129387600Y-88328500D01*
X122611699Y-94860399D02*
X123698700Y-95947400D01*
X122611699Y-92885639D02*
X122611699Y-94860399D01*
X123176939Y-92320399D02*
X122611699Y-92885639D01*
X127872201Y-92320399D02*
X123176939Y-92320399D01*
X129387600Y-90805000D02*
X127872201Y-92320399D01*
%TO.N,SW2*%
X132130800Y-90601800D02*
X131927600Y-90805000D01*
X132130800Y-87655400D02*
X132130800Y-90601800D01*
X128450202Y-93407400D02*
X123698700Y-93407400D01*
X130481102Y-91376500D02*
X128450202Y-93407400D01*
X131356100Y-91376500D02*
X130481102Y-91376500D01*
X131927600Y-90805000D02*
X131356100Y-91376500D01*
%TO.N,SW3*%
X128459400Y-80707400D02*
X135407400Y-87655400D01*
X123698700Y-80707400D02*
X128459400Y-80707400D01*
X134467600Y-88595200D02*
X135407400Y-87655400D01*
X134467600Y-90805000D02*
X134467600Y-88595200D01*
%TO.N,3V3*%
X123698700Y-105163900D02*
X123698700Y-106107400D01*
X129387600Y-99475000D02*
X123698700Y-105163900D01*
X129387600Y-98425000D02*
X129387600Y-99475000D01*
X131927600Y-98425000D02*
X129387600Y-98425000D01*
X134467600Y-98425000D02*
X131927600Y-98425000D01*
%TD*%
M02*
